<?xml version="1.0" encoding="UTF-8" standalone="no"?>
<!DOCTYPE svg PUBLIC "-//W3C//DTD SVG 1.1//EN" "http://www.w3.org/Graphics/SVG/1.1/DTD/svg11.dtd">
<svg version="1.1" xmlns="http://www.w3.org/2000/svg" xmlns:xlink="http://www.w3.org/1999/xlink" preserveAspectRatio="xMidYMid meet" viewBox="211.411 240.536677541364 138.34500000000003 139.06289795863447" width="134.35" height="135.06"><defs><path d="M284.72 241.75L287.35 242.01L289.95 242.37L292.53 242.83L295.08 243.39L297.6 244.04L300.09 244.79L302.55 245.64L304.97 246.58L307.36 247.61L309.69 248.73L311.99 249.93L314.24 251.23L316.43 252.61L318.58 254.07L320.66 255.61L322.69 257.24L324.66 258.94L326.56 260.72L328.4 262.58L330.17 264.51L331.87 266.52L333.49 268.6L335.03 270.74L336.5 272.96L337.88 275.24L339.18 277.59L340.38 280.01L341.5 282.48L342.52 285.02L343.45 287.62L344.28 290.27L345 292.96L345.61 295.65L346.1 298.34L346.48 301.03L346.75 303.72L346.76 303.86L333.16 303.55L333.07 302.64L332.76 300.49L332.37 298.33L331.89 296.18L331.31 294.03L330.65 291.91L329.91 289.83L329.09 287.8L328.19 285.82L327.23 283.89L326.19 282.01L325.08 280.18L323.91 278.41L322.68 276.69L321.38 275.03L320.02 273.42L318.61 271.88L317.14 270.39L315.61 268.97L314.04 267.6L312.42 266.3L310.75 265.07L309.03 263.9L307.27 262.8L305.48 261.76L303.64 260.8L301.77 259.9L299.86 259.08L297.93 258.33L295.96 257.65L293.97 257.05L291.95 256.52L289.91 256.08L287.84 255.71L285.76 255.42L283.66 255.21L281.55 255.08L279.43 255.04L277.29 255.09L275.15 255.21L273 255.43L270.85 255.73L268.7 256.13L266.54 256.61L264.39 257.19L262.27 257.85L260.19 258.59L258.16 259.41L256.18 260.31L254.25 261.27L252.37 262.31L250.54 263.41L248.77 264.59L247.05 265.82L245.39 267.12L243.79 268.48L242.24 269.89L240.75 271.36L239.33 272.88L237.97 274.46L236.67 276.08L235.43 277.75L234.26 279.47L233.16 281.22L232.12 283.02L231.16 284.86L230.26 286.73L229.44 288.63L228.69 290.57L228.01 292.54L227.88 292.98L332.14 322.62L345.51 322.92L345.11 324.72L344.46 327.24L343.7 329.73L342.86 332.19L341.92 334.61L340.89 336.99L339.77 339.33L338.57 341.63L337.27 343.87L335.89 346.07L334.43 348.21L332.89 350.3L331.26 352.33L329.56 354.3L327.78 356.2L325.92 358.04L323.99 359.81L321.98 361.5L319.9 363.13L317.76 364.67L315.54 366.14L313.26 367.52L310.91 368.81L308.49 370.02L306.02 371.14L303.48 372.16L300.88 373.09L298.23 373.92L295.54 374.64L292.85 375.24L290.16 375.73L287.47 376.12L284.78 376.38L282.1 376.55L279.44 376.6L276.78 376.55L274.14 376.39L271.52 376.13L268.91 375.77L266.34 375.31L263.78 374.75L261.26 374.09L258.77 373.34L256.31 372.5L253.89 371.56L251.51 370.53L249.17 369.41L246.87 368.2L244.63 366.91L242.43 365.53L240.29 364.07L238.2 362.52L236.17 360.9L234.2 359.2L232.3 357.41L230.46 355.56L228.69 353.62L226.99 351.62L225.37 349.54L223.83 347.39L222.36 345.18L220.98 342.89L219.69 340.54L218.48 338.13L217.36 335.65L216.34 333.12L215.41 330.52L214.58 327.86L213.86 325.18L213.26 322.49L212.79 319.95L226.59 320.26L226.98 321.96L227.55 324.1L228.21 326.23L228.96 328.31L229.77 330.34L230.67 332.32L231.63 334.25L232.67 336.13L233.78 337.96L234.95 339.73L236.18 341.45L237.48 343.11L238.84 344.71L240.25 346.26L241.72 347.74L243.25 349.17L244.82 350.53L246.44 351.83L248.11 353.07L249.83 354.24L251.59 355.34L253.38 356.38L255.22 357.34L257.09 358.24L259 359.06L260.93 359.81L262.9 360.49L264.89 361.09L266.91 361.61L268.95 362.06L271.02 362.43L273.1 362.72L275.2 362.93L277.31 363.05L279.43 363.09L281.57 363.05L283.71 362.92L285.86 362.71L288.01 362.4L290.17 362.01L292.32 361.52L294.47 360.95L296.59 360.28L298.67 359.54L300.7 358.72L302.68 357.83L304.61 356.86L306.49 355.83L308.32 354.72L310.09 353.55L311.81 352.31L313.47 351.02L315.08 349.66L316.62 348.25L318.11 346.78L319.53 345.25L320.9 343.68L322.2 342.05L323.43 340.38L324.6 338.67L325.7 336.91L326.74 335.11L327.7 333.28L328.6 331.41L328.63 331.33L222.18 301.06L212.41 300.84L212.73 298.55L213.19 295.97L213.75 293.42L214.41 290.9L215.16 288.4L216 285.95L216.94 283.53L217.97 281.14L219.09 278.8L220.3 276.51L221.59 274.26L222.97 272.07L224.43 269.92L225.97 267.84L227.6 265.81L229.3 263.84L231.09 261.93L232.94 260.1L234.88 258.33L236.88 256.63L238.96 255.01L241.11 253.47L243.32 252L245.61 250.62L247.95 249.32L250.37 248.12L252.84 247L255.38 245.97L257.98 245.05L260.63 244.22L263.32 243.5L266.01 242.89L268.7 242.4L271.39 242.02L274.08 241.75L276.76 241.59L279.43 241.54L282.08 241.59L284.72 241.75Z" id="d3cDWdJ08D"></path><linearGradient id="gradientdCbyUxfbz" gradientUnits="userSpaceOnUse" x1="231.16" y1="271" x2="335.45" y2="355.53"><stop style="stop-color: #7e7f80;stop-opacity: 1" offset="0%"></stop><stop style="stop-color: #0f0c0c;stop-opacity: 1" offset="100%"></stop></linearGradient></defs><g><g><use xlink:href="#d3cDWdJ08D" opacity="1" fill="url(#gradientdCbyUxfbz)"></use></g></g></svg>